#!OML:ASF F:\VICON\USERDATA\INSTALL\Justin_Nancy\Justin_Nancy.ASF
:FULLY-SPECIFIED
:DEGREES
145
root 4.24734 17.2123 7.36432 -37.1832 84.6 -52.146
lowerback 10.4821 -0.657206 -4.39331
upperback 0.336172 -1.15202 3.60484
thorax -5.37513 -0.392445 6.47294
lowerneck -20.8823 -1.87036 -7.02197
upperneck 13.8665 -1.10423 3.39865
head 7.75261 -0.56423 2.13211
rclavicle 1.59649e-014 2.89232e-014
rhumerus -60.3396 14.1813 -90.9759
rradius 114.984
rwrist -12.8942
rhand -11.6052 25.532
rfingers 7.12502
rthumb 14.4375 -3.94577
lclavicle 1.59649e-014 2.89232e-014
lhumerus -41.6467 -17.8731 96.4998
lradius 111.494
lwrist 19.7852
lhand -18.8024 6.75925
lfingers 7.12502
lthumb 7.49585 36.6064
rfemur -49.2884 -7.12613 16.6741
rtibia 51.2228
rfoot -4.54867 5.18945
rtoes -8.14378
lfemur 8.36083 -4.08081 -29.0522
ltibia 21.0777
lfoot 24.6569 -6.73071
ltoes -8.67749
146
root 4.60462 17.252 7.42828 -35.8774 84.6133 -50.7792
lowerback 10.3549 -0.808163 -3.90573
upperback 0.275246 -1.31536 3.26588
thorax -5.36247 -0.491404 5.84848
lowerneck -21.1678 -1.81311 -6.86592
upperneck 14.3393 -1.10434 3.6445
head 7.95883 -0.534182 2.19417
rclavicle 1.57785e-014 -2.93207e-014
rhumerus -59.9196 13.828 -91.3574
rradius 114.705
rwrist -12.4993
rhand -9.76647 24.8564
rfingers 7.12502
rthumb 16.2085 -4.48604
lclavicle 1.57785e-014 -2.93207e-014
lhumerus -42.4658 -18.3435 95.8506
lradius 109.954
lwrist 20.0411
lhand -17.2676 7.15452
lfingers 7.12502
lthumb 8.9771 36.9435
rfemur -48.8225 -7.63809 17.3655
rtibia 47.5435
rfoot -2.60716 7.27008
rtoes -6.02221
lfemur 8.58011 -4.56627 -29.0822
ltibia 21.6128
lfoot 27.5068 -7.43524
ltoes -1.33269
147
root 4.96198 17.2818 7.49212 -32.2248 84.7581 -47.0496
lowerback 10.102 -0.699311 -4.34795
upperback 0.302535 -1.21005 3.3665
thorax -5.19456 -0.433284 6.18663
lowerneck -21.429 -1.8795 -7.25368
upperneck 14.6807 -1.06525 3.66964
head 8.11854 -0.537375 2.27392
rclavicle -2.89729e-014 -3.00662e-015
rhumerus -59.3023 13.441 -90.6849
rradius 114.462
rwrist -11.9295
rhand -9.62902 24.3993
rfingers 7.12502
rthumb 16.3409 -4.93229
lclavicle -2.89729e-014 -3.00662e-015
lhumerus -43.0706 -18.91 96.275
lradius 108.268
lwrist 19.581
lhand -16.6929 7.41066
lfingers 7.12502
lthumb 9.53168 37.1751
rfemur -48.4258 -8.24922 17.9471
rtibia 44.4726
rfoot -1.74196 9.11138
rtoes -4.93703
lfemur 8.5765 -4.50897 -29.2754
ltibia 22.4926
lfoot 29.9857 -8.56344
ltoes 4.91857
148
root 5.3168 17.2953 7.56238 -24.9546 85.4996 -39.505
lowerback 10.0675 -0.679611 -5.05988
upperback 0.329923 -1.28767 3.05595
thorax -5.12759 -0.463479 6.27238
lowerneck -21.4528 -1.92581 -7.31732
upperneck 14.8067 -1.13382 3.7983
head 8.17023 -0.561387 2.32034
rclavicle -3.07557e-014 -1.40889e-014
rhumerus -58.6867 12.8837 -90.5303
rradius 114.067
rwrist -11.5485
rhand -10.7368 24.2835
rfingers 7.12502
rthumb 15.274 -5.13256
lclavicle -3.07557e-014 -1.40889e-014
lhumerus -43.8049 -19.7935 96.6626
lradius 106.522
lwrist 18.9572
lhand -16.5547 7.59544
lfingers 7.12502
lthumb 9.66496 37.3537
rfemur -47.9403 -9.26346 17.9059
rtibia 42.1381
rfoot -1.55547 10.401
rtoes -4.11848
lfemur 8.47223 -3.89318 -29.8408
ltibia 23.7987
lfoot 31.6933 -10.1582
ltoes 9.7096
149
root 5.66316 17.2851 7.64827 -12.7125 87.0951 -26.8271
lowerback 10.4106 -0.972688 -6.12629
upperback 0.274329 -1.8531 2.57816
thorax -5.28051 -0.717273 6.46504
lowerneck -21.3112 -1.91056 -7.09161
upperneck 14.8132 -1.18343 3.7501
head 8.14946 -0.577908 2.26086
rclavicle -2.08848e-014 1.33683e-014
rhumerus -58.375 12.538 -90.9548
rradius 113.651
rwrist -10.7259
rhand -12.5237 24.8925
rfingers 7.12502
rthumb 13.5523 -4.64647
lclavicle -2.08848e-014 1.33683e-014
lhumerus -44.6968 -20.311 96.9602
lradius 104.821
lwrist 18.9505
lhand -17.2677 7.71586
lfingers 7.12502
lthumb 8.977 37.5049
rfemur -47.3708 -11.0207 17.4117
rtibia 40.6054
rfoot -1.75653 9.97126
rtoes -3.60272
lfemur 8.38793 -3.91809 -30.7774
ltibia 25.4019
lfoot 32.2397 -11.6986
ltoes 10.5258
150
root 5.99383 17.2553 7.72698 -0.603047 87.5053 -14.3691
lowerback 10.6639 -0.982737 -6.69542
upperback 0.279739 -1.95856 2.44329
thorax -5.38749 -0.751953 6.67227
lowerneck -21.2118 -1.89808 -7.18147
upperneck 14.717 -1.13291 3.68687
head 8.09772 -0.565441 2.25947
rclavicle -3.4601e-015 2.27857e-014
rhumerus -57.6483 12.0647 -90.6604
rradius 113.375
rwrist -10.3198
rhand -11.776 25.3667
rfingers 7.12502
rthumb 14.2729 -4.12279
lclavicle -3.4601e-015 2.27857e-014
lhumerus -45.3092 -20.4315 97.4386
lradius 103.126
lwrist 18.7636
lhand -18.3017 8.05673
lfingers 7.12502
lthumb 7.97918 37.8861
rfemur -47.1034 -12.043 17.8534
rtibia 39.753
rfoot -2.19592 8.30305
rtoes -6.50042
lfemur 8.02588 -3.70798 -31.1722
ltibia 27.3677
lfoot 31.5159 -12.3768
ltoes 7.81838
151
root 6.33393 17.2318 7.80079 5.7584 87.7385 -7.47282
lowerback 10.9898 -0.976416 -7.05511
upperback 0.392181 -2.00357 2.55305
thorax -5.42784 -0.763404 7.01482
lowerneck -21.2068 -1.91517 -7.55318
upperneck 14.6637 -1.03783 3.66151
head 8.07597 -0.543811 2.32274
rclavicle -2.27981e-014 -2.12203e-014
rhumerus -56.669 11.648 -89.8927
rradius 113.163
rwrist -10.5159
rhand -10.0653 25.2928
rfingers 7.12502
rthumb 15.9207 -4.07284
lclavicle -2.27981e-014 -2.12203e-014
lhumerus -45.7064 -20.3238 97.9593
lradius 101.42
lwrist 18.1362
lhand -17.7917 7.9935
lfingers 7.12502
lthumb 8.47138 37.8036
rfemur -46.5518 -12.8411 18.4418
rtibia 39.5522
rfoot -2.36392 6.14522
rtoes -6.76488
lfemur 7.65562 -3.11179 -31.0536
ltibia 29.7036
lfoot 30.3776 -12.7115
ltoes 5.87785
152
root 6.67672 17.2069 7.86811 9.02482 87.9892 -3.64842
lowerback 11.3415 -0.99312 -7.01208
upperback 0.470756 -2.04305 2.48419
thorax -5.53849 -0.780618 6.93447
lowerneck -21.164 -1.90226 -7.3805
upperneck 14.7285 -1.05234 3.53969
head 8.08979 -0.554599 2.25216
rclavicle 2.3643e-014 7.60351e-015
rhumerus -55.9486 11.2591 -89.7604
rradius 112.888
rwrist -9.89434
rhand -10.1899 25.3235
rfingers 7.12502
rthumb 15.8007 -4.05166
lclavicle 2.3643e-014 7.60351e-015
lhumerus -46.2214 -20.4066 98.1328
lradius 99.8772
lwrist 17.6254
lhand -17.619 8.00384
lfingers 7.12502
lthumb 8.63798 37.8071
rfemur -45.8844 -13.3543 18.9584
rtibia 39.8883
rfoot -2.41324 4.4557
rtoes -3.42073
lfemur 7.14876 -3.00254 -30.9416
ltibia 32.3538
lfoot 28.8528 -12.5041
ltoes 6.56994
153
root 7.01599 17.1667 7.93592 19.9864 88.1408 7.71148
lowerback 11.391 -0.921872 -6.9939
upperback 0.583911 -1.96797 2.10069
thorax -5.47235 -0.754704 6.49771
lowerneck -21.0643 -1.96726 -6.82998
upperneck 14.6218 -1.31494 3.54302
head 8.04756 -0.646357 2.12927
rclavicle -1.76208e-014 -1.17019e-014
rhumerus -55.0646 10.6063 -90.0026
rradius 112.576
rwrist -9.48636
rhand -10.362 25.4571
rfingers 7.12502
rthumb 15.635 -3.93106
lclavicle -1.76208e-014 -1.17019e-014
lhumerus -46.838 -21.0528 97.8968
lradius 98.6078
lwrist 17.6502
lhand -19.3218 8.59429
lfingers 7.12502
lthumb 6.9945 38.4587
rfemur -45.5131 -13.9342 19.3161
rtibia 40.8231
rfoot -2.72251 3.98756
rtoes -0.899669
lfemur 6.28584 -3.08508 -31.1589
ltibia 35.201
lfoot 27.1291 -12.4248
ltoes 7.80106
154
root 7.34916 17.1215 8.01408 23.3939 88.0053 11.598
lowerback 11.5284 -0.678063 -7.10589
upperback 0.750145 -1.66579 1.99952
thorax -5.42103 -0.609847 6.40874
lowerneck -20.9003 -2.13468 -6.99516
upperneck 14.3146 -1.52474 3.66047
head 7.93065 -0.741006 2.16624
rclavicle 1.83876e-015 -1.75179e-015
rhumerus -54.0706 10.1845 -89.7388
rradius 112.382
rwrist -9.91662
rhand -10.5035 25.6068
rfingers 7.12502
rthumb 15.4987 -3.79203
lclavicle 1.83876e-015 -1.75179e-015
lhumerus -47.1217 -21.0233 98.0274
lradius 97.0635
lwrist 17.6048
lhand -20.6627 8.9298
lfingers 7.12502
lthumb 5.69997 38.8331
rfemur -45.002 -14.0492 19.6702
rtibia 42.2971
rfoot -3.32955 3.78155
rtoes 1.31974
lfemur 5.19843 -2.40026 -31.0168
ltibia 38.3048
lfoot 25.0869 -13.4724
ltoes 6.97849
155
root 7.67771 17.0678 8.09393 19.0129 87.8772 7.87436
lowerback 11.8625 -0.401676 -7.1101
upperback 0.958032 -1.30432 2.10853
thorax -5.44187 -0.432886 6.47973
lowerneck -20.5993 -2.20901 -7.24416
upperneck 13.9132 -1.56111 3.61369
head 7.74992 -0.774629 2.18325
rclavicle 2.59911e-014 -5.96354e-015
rhumerus -53.1151 10.0578 -89.2275
rradius 112.317
rwrist -10.3558
rhand -10.7898 25.5025
rfingers 7.12502
rthumb 15.2229 -3.91742
lclavicle 2.59911e-014 -5.96354e-015
lhumerus -47.1003 -20.4533 98.2465
lradius 95.2523
lwrist 17.6574
lhand -20.197 8.45969
lfingers 7.12502
lthumb 6.14967 38.3504
rfemur -44.0578 -13.6851 19.8453
rtibia 44.1913
rfoot -4.64923 2.73929
rtoes 4.98254
lfemur 4.1064 -1.73783 -30.6201
ltibia 41.6547
lfoot 23.0143 -14.4307
ltoes 6.57034
156
root 8.00027 16.9973 8.15851 14.6111 87.977 4.0311
lowerback 12.1548 -0.140304 -7.04506
upperback 1.10686 -0.947772 2.30196
thorax -5.50214 -0.255837 6.60021
lowerneck -20.2721 -2.30573 -7.31471
upperneck 13.5675 -1.65099 3.38809
head 7.58425 -0.84185 2.10576
rclavicle -4.96962e-016 -8.24956e-015
rhumerus -52.1655 9.91974 -88.4715
rradius 112.299
rwrist -10.5512
rhand -11.2239 25.1841
rfingers 7.12502
rthumb 14.8047 -4.2671
lclavicle -4.96962e-016 -8.24956e-015
lhumerus -47.1468 -20.1797 98.616
lradius 93.4419
lwrist 18.5135
lhand -18.8146 7.75985
lfingers 7.12502
lthumb 7.48414 37.6075
rfemur -43.0011 -13.3558 19.8145
rtibia 46.1686
rfoot -6.87992 2.18047
rtoes 4.72279
lfemur 2.79857 -1.39487 -30.1826
ltibia 45.1051
lfoot 21.0817 -15.3257
ltoes 6.18567
157
root 8.3191 16.919 8.21328 10.7037 88.1116 0.552795
lowerback 12.3404 0.0637153 -6.96564
upperback 1.21967 -0.658778 2.50623
thorax -5.53134 -0.112954 6.73098
lowerneck -20.1985 -2.53981 -7.79363
upperneck 13.4569 -1.86401 3.54332
head 7.55404 -0.952488 2.20789
rclavicle -9.69075e-015 3.57812e-015
rhumerus -51.0529 9.85377 -87.8176
rradius 112.198
rwrist -10.9361
rhand -11.4715 24.6823
rfingers 7.12502
rthumb 14.5662 -4.78625
lclavicle -9.69075e-015 3.57812e-015
lhumerus -47.0378 -19.3798 98.5734
lradius 91.526
lwrist 18.4701
lhand -14.5004 6.59823
lfingers 7.12502
lthumb 11.6466 36.2545
rfemur -41.9623 -12.8128 19.5641
rtibia 47.972
rfoot -9.37251 2.63852
rtoes -1.20062
lfemur 1.22774 -1.29394 -29.8349
ltibia 48.6401
lfoot 19.4386 -15.6954
ltoes 6.17279
158
root 8.64832 16.874 8.27799 0.181941 88.0122 -9.3581
lowerback 12.7143 0.19838 -6.43451
upperback 1.38383 -0.425202 2.4296
thorax -5.60776 -0.0100145 6.30775
lowerneck -20.2909 -2.57189 -7.63206
upperneck 13.5214 -1.95765 3.59931
head 7.59504 -0.983246 2.18913
rclavicle 1.2921e-014 3.18055e-015
rhumerus -49.8411 9.83597 -87.9916
rradius 112.027
rwrist -11.3823
rhand -11.7913 24.1392
rfingers 7.12502
rthumb 14.2581 -5.35135
lclavicle 1.2921e-014 3.18055e-015
lhumerus -47.0157 -18.5587 98.1336
lradius 89.8959
lwrist 19.438
lhand -12.7421 6.96081
lfingers 7.12502
lthumb 13.3418 36.5137
rfemur -40.5905 -11.0177 18.8147
rtibia 49.3882
rfoot -10.9645 3.2784
rtoes 3.86394
lfemur -0.122651 -0.914465 -29.1468
ltibia 52.02
lfoot 17.9106 -15.6527
ltoes 7.20366
159
root 8.97376 16.8212 8.35486 -19.3559 87.7325 -28.0726
lowerback 13.475 0.342291 -5.32527
upperback 1.55127 -0.114574 2.26516
thorax -5.90322 0.125419 5.44824
lowerneck -20.3829 -2.53353 -7.38712
upperneck 13.5041 -1.99535 3.73963
head 7.6052 -0.973442 2.19168
rclavicle 6.95746e-016 1.05356e-014
rhumerus -48.6357 9.65672 -88.2927
rradius 111.954
rwrist -11.7176
rhand -11.9953 23.8485
rfingers 7.12502
rthumb 14.0615 -5.65584
lclavicle 6.95746e-016 1.05356e-014
lhumerus -47.1045 -18.015 97.6091
lradius 88.2517
lwrist 20.304
lhand -13.5424 7.49507
lfingers 7.12502
lthumb 12.5703 37.0969
rfemur -38.6987 -9.2049 18.751
rtibia 50.4955
rfoot -12.7277 2.99398
rtoes 7.23289
lfemur -1.27849 -0.162993 -27.796
ltibia 55.2604
lfoot 16.5215 -15.7925
ltoes 7.13199
